<svg width="24" height="24" viewBox="0 0 24 24" fill="none" xmlns="http://www.w3.org/2000/svg">
<mask id="mask0_22_122" style="mask-type:alpha" maskUnits="userSpaceOnUse" x="0" y="0" width="24" height="24">
<rect width="24" height="24" fill="#D9D9D9"/>
</mask>
<g mask="url(#mask0_22_122)">
<path d="M5.6155 20C5.15517 20 4.77083 19.8458 4.4625 19.5375C4.15417 19.2292 4 18.8448 4 18.3845V15.7692C4 15.6269 4.04775 15.508 4.14325 15.4125C4.23875 15.317 4.35767 15.2692 4.5 15.2692C4.64233 15.2692 4.76125 15.317 4.85675 15.4125C4.95225 15.508 5 15.6269 5 15.7692V18.3845C5 18.5385 5.06408 18.6796 5.19225 18.8077C5.32042 18.9359 5.4615 19 5.6155 19H18.3845C18.5385 19 18.6796 18.9359 18.8077 18.8077C18.9359 18.6796 19 18.5385 19 18.3845V5.6155C19 5.4615 18.9359 5.32042 18.8077 5.19225C18.6796 5.06408 18.5385 5 18.3845 5H5.6155C5.4615 5 5.32042 5.06408 5.19225 5.19225C5.06408 5.32042 5 5.4615 5 5.6155V8.23075C5 8.37308 4.95225 8.492 4.85675 8.5875C4.76125 8.683 4.64233 8.73075 4.5 8.73075C4.35767 8.73075 4.23875 8.683 4.14325 8.5875C4.04775 8.492 4 8.37308 4 8.23075V5.6155C4 5.15517 4.15417 4.77083 4.4625 4.4625C4.77083 4.15417 5.15517 4 5.6155 4H18.3845C18.8448 4 19.2292 4.15417 19.5375 4.4625C19.8458 4.77083 20 5.15517 20 5.6155V18.3845C20 18.8448 19.8458 19.2292 19.5375 19.5375C19.2292 19.8458 18.8448 20 18.3845 20H5.6155ZM12.8422 12.5H4.5C4.35767 12.5 4.23875 12.4522 4.14325 12.3567C4.04775 12.2612 4 12.1423 4 12C4 11.8577 4.04775 11.7388 4.14325 11.6433C4.23875 11.5478 4.35767 11.5 4.5 11.5H12.8422L10.4922 9.15C10.3949 9.0525 10.344 8.93775 10.3395 8.80575C10.335 8.67375 10.3859 8.55258 10.4922 8.44225C10.6026 8.33208 10.7215 8.276 10.849 8.274C10.9767 8.27217 11.0956 8.32633 11.2058 8.4365L14.2038 11.4345C14.2909 11.5218 14.3522 11.611 14.3875 11.702C14.4228 11.793 14.4405 11.8923 14.4405 12C14.4405 12.1077 14.4228 12.207 14.3875 12.298C14.3522 12.389 14.2909 12.4782 14.2038 12.5655L11.2058 15.5635C11.1083 15.6608 10.9926 15.7118 10.8588 15.7163C10.7248 15.7208 10.6026 15.6679 10.4922 15.5577C10.3859 15.4474 10.3318 15.3294 10.3298 15.2037C10.3279 15.0782 10.3821 14.9603 10.4922 14.85L12.8422 12.5Z" fill="#DF866B"/>
</g>
</svg>
