<svg width="24" height="24" viewBox="0 0 24 24" fill="none" xmlns="http://www.w3.org/2000/svg">
<mask id="mask0_22_116" style="mask-type:alpha" maskUnits="userSpaceOnUse" x="0" y="0" width="24" height="24">
<rect width="24" height="24" fill="#D9D9D9"/>
</mask>
<g mask="url(#mask0_22_116)">
<path d="M11.9808 19.0943C11.7859 19.0943 11.5933 19.059 11.403 18.9885C11.2125 18.918 11.0448 18.8103 10.9 18.6655L9.752 17.6288C7.9725 16.0121 6.40225 14.44 5.04125 12.9125C3.68042 11.385 3 9.7975 3 8.15C3 6.87817 3.43208 5.81025 4.29625 4.94625C5.16025 4.08208 6.22817 3.65 7.5 3.65C8.2295 3.65 8.98908 3.83433 9.77875 4.203C10.5686 4.5715 11.309 5.26667 12 6.2885C12.691 5.26667 13.4314 4.5715 14.2212 4.203C15.0109 3.83433 15.7705 3.65 16.5 3.65C17.7718 3.65 18.8398 4.08208 19.7038 4.94625C20.5679 5.81025 21 6.87817 21 8.15C21 9.83583 20.2917 11.4563 18.875 13.0115C17.4583 14.5667 15.9077 16.1077 14.223 17.6345L13.0807 18.6655C12.9359 18.8103 12.7651 18.918 12.5683 18.9885C12.3714 19.059 12.1756 19.0943 11.9808 19.0943ZM11.5115 7.327C10.9128 6.3615 10.2904 5.674 9.64425 5.2645C8.99808 4.85484 8.28333 4.65 7.5 4.65C6.5 4.65 5.66667 4.98333 5 5.65C4.33333 6.31667 4 7.15 4 8.15C4 8.8885 4.209 9.64584 4.627 10.422C5.04483 11.1983 5.606 11.9936 6.3105 12.8078C7.015 13.6218 7.82467 14.4544 8.7395 15.3058C9.65417 16.1571 10.6064 17.0333 11.5963 17.9345C11.7116 18.0372 11.8462 18.0885 12 18.0885C12.1538 18.0885 12.2884 18.0372 12.4038 17.9345C13.3936 17.0333 14.3458 16.1571 15.2605 15.3058C16.1753 14.4544 16.985 13.6218 17.6895 12.8078C18.394 11.9936 18.9552 11.1983 19.373 10.422C19.791 9.64584 20 8.8885 20 8.15C20 7.15 19.6667 6.31667 19 5.65C18.3333 4.98333 17.5 4.65 16.5 4.65C15.7167 4.65 15.0019 4.85484 14.3558 5.2645C13.7096 5.674 13.0872 6.3615 12.4885 7.327C12.4358 7.41667 12.3647 7.48392 12.275 7.52875C12.1853 7.57375 12.0937 7.59625 12 7.59625C11.9063 7.59625 11.8147 7.57375 11.725 7.52875C11.6353 7.48392 11.5642 7.41667 11.5115 7.327Z" fill="#DF866B"/>
</g>
</svg>
