<svg width="24" height="24" viewBox="0 0 24 24" fill="none" xmlns="http://www.w3.org/2000/svg">
<mask id="mask0_22_110" style="mask-type:alpha" maskUnits="userSpaceOnUse" x="0" y="0" width="24" height="24">
<rect width="24" height="24" fill="#D9D9D9"/>
</mask>
<g mask="url(#mask0_22_110)">
<path d="M4 20.3615V3.6385C4 3.5475 4.03717 3.48759 4.1115 3.45875C4.18583 3.42992 4.25825 3.43792 4.32875 3.48275L5.0345 4.0155C5.109 4.06417 5.18725 4.0885 5.26925 4.0885C5.35125 4.0885 5.42942 4.06417 5.50375 4.0155L6.38075 3.40775C6.45508 3.35892 6.53333 3.3345 6.6155 3.3345C6.6975 3.3345 6.77567 3.35892 6.85 3.40775L7.727 4.0155C7.80133 4.06417 7.8795 4.0885 7.9615 4.0885C8.0435 4.0885 8.12175 4.06417 8.19625 4.0155L9.073 3.40775C9.14733 3.35892 9.22558 3.3345 9.30775 3.3345C9.38975 3.3345 9.46792 3.35892 9.54225 3.40775L10.4193 4.0155C10.4936 4.06417 10.5717 4.0885 10.6537 4.0885C10.7359 4.0885 10.8142 4.06417 10.8885 4.0155L11.7655 3.40775C11.8398 3.35892 11.918 3.3345 12 3.3345C12.082 3.3345 12.1602 3.35892 12.2345 3.40775L13.1115 4.0155C13.1858 4.06417 13.2641 4.0885 13.3462 4.0885C13.4282 4.0885 13.5064 4.06417 13.5807 4.0155L14.4578 3.40775C14.5321 3.35892 14.6103 3.3345 14.6923 3.3345C14.7744 3.3345 14.8527 3.35892 14.927 3.40775L15.8038 4.0155C15.8783 4.06417 15.9565 4.0885 16.0385 4.0885C16.1205 4.0885 16.1987 4.06417 16.273 4.0155L17.15 3.40775C17.2243 3.35892 17.3025 3.3345 17.3845 3.3345C17.4667 3.3345 17.5449 3.35892 17.6193 3.40775L18.4962 4.0155C18.5706 4.06417 18.6488 4.0885 18.7308 4.0885C18.8128 4.0885 18.891 4.06417 18.9655 4.0155L19.6712 3.48275C19.7417 3.43792 19.8142 3.42992 19.8885 3.45875C19.9628 3.48759 20 3.5475 20 3.6385V20.3615C20 20.4525 19.9628 20.5124 19.8885 20.5413C19.8142 20.5701 19.7417 20.5621 19.6712 20.5173L18.9655 19.9845C18.891 19.9358 18.8128 19.9115 18.7308 19.9115C18.6488 19.9115 18.5706 19.9358 18.4962 19.9845L17.6193 20.5923C17.5449 20.6411 17.4667 20.6655 17.3845 20.6655C17.3025 20.6655 17.2243 20.6411 17.15 20.5923L16.273 19.9845C16.1987 19.9358 16.1205 19.9115 16.0385 19.9115C15.9565 19.9115 15.8783 19.9358 15.8038 19.9845L14.927 20.5923C14.8527 20.6411 14.7744 20.6655 14.6923 20.6655C14.6103 20.6655 14.5321 20.6411 14.4578 20.5923L13.5807 19.9845C13.5064 19.9358 13.4282 19.9115 13.3462 19.9115C13.2641 19.9115 13.1858 19.9358 13.1115 19.9845L12.2345 20.5923C12.1602 20.6411 12.082 20.6655 12 20.6655C11.918 20.6655 11.8398 20.6411 11.7655 20.5923L10.8885 19.9845C10.8142 19.9358 10.7359 19.9115 10.6537 19.9115C10.5717 19.9115 10.4936 19.9358 10.4193 19.9845L9.54225 20.5923C9.46792 20.6411 9.38975 20.6655 9.30775 20.6655C9.22558 20.6655 9.14733 20.6411 9.073 20.5923L8.19625 19.9845C8.12175 19.9358 8.0435 19.9115 7.9615 19.9115C7.8795 19.9115 7.80133 19.9358 7.727 19.9845L6.85 20.5923C6.77567 20.6411 6.6975 20.6655 6.6155 20.6655C6.53333 20.6655 6.45508 20.6411 6.38075 20.5923L5.50375 19.9845C5.42942 19.9358 5.35125 19.9115 5.26925 19.9115C5.18725 19.9115 5.109 19.9358 5.0345 19.9845L4.32875 20.5173C4.25825 20.5621 4.18583 20.5701 4.1115 20.5413C4.03717 20.5124 4 20.4525 4 20.3615ZM7 15.8845H17C17.1423 15.8845 17.2613 15.8368 17.3568 15.7413C17.4523 15.6458 17.5 15.5268 17.5 15.3845C17.5 15.2423 17.4523 15.1235 17.3568 15.028C17.2613 14.9323 17.1423 14.8845 17 14.8845H7C6.85767 14.8845 6.73875 14.9323 6.64325 15.028C6.54775 15.1235 6.5 15.2423 6.5 15.3845C6.5 15.5268 6.54775 15.6458 6.64325 15.7413C6.73875 15.8368 6.85767 15.8845 7 15.8845ZM7 12.5H17C17.1423 12.5 17.2613 12.4523 17.3568 12.3568C17.4523 12.2613 17.5 12.1423 17.5 12C17.5 11.8577 17.4523 11.7388 17.3568 11.6433C17.2613 11.5478 17.1423 11.5 17 11.5H7C6.85767 11.5 6.73875 11.5478 6.64325 11.6433C6.54775 11.7388 6.5 11.8577 6.5 12C6.5 12.1423 6.54775 12.2613 6.64325 12.3568C6.73875 12.4523 6.85767 12.5 7 12.5ZM7 9.1155H17C17.1423 9.1155 17.2613 9.06767 17.3568 8.972C17.4523 8.8765 17.5 8.75767 17.5 8.6155C17.5 8.47317 17.4523 8.35425 17.3568 8.25875C17.2613 8.16325 17.1423 8.1155 17 8.1155H7C6.85767 8.1155 6.73875 8.16325 6.64325 8.25875C6.54775 8.35425 6.5 8.47317 6.5 8.6155C6.5 8.75767 6.54775 8.8765 6.64325 8.972C6.73875 9.06767 6.85767 9.1155 7 9.1155ZM5 19.1H19V4.9H5V19.1Z" fill="#DF866B"/>
</g>
</svg>
